<svg width="748" height="569" viewBox="0 0 748 569" fill="none" xmlns="http://www.w3.org/2000/svg">
<path d="M223.525 73.7647L222.993 73.6177L54.3258 460.851L648.914 511.185L649.584 511.242L671.371 196.895L671.414 196.277L223.525 73.7647ZM394.332 322.791L56.6659 458.889L223.493 75.8826L394.332 322.791ZM395.322 323.957L646.487 509.501L58.47 459.728L395.322 323.957ZM395.632 322.241L225.047 75.693L668.579 197.013L395.632 322.241ZM648.386 509.134L396.818 323.29L669.95 197.978L648.386 509.134Z" fill="#231F20"/>
<path d="M747.364 203.442C746.827 218.349 743.006 232.892 736.228 245.828C729.451 258.764 719.918 269.708 708.445 277.726C696.971 285.743 683.898 290.595 670.343 291.866C656.788 293.138 643.153 290.792 630.605 285.029C624.719 282.324 619.137 278.885 613.969 274.78C604.091 266.96 595.869 256.892 589.867 245.266V245.256C583.466 232.82 579.782 218.927 579.105 204.667C578.427 190.407 580.774 176.17 585.961 163.072C591.147 149.975 599.033 138.375 608.998 129.183C618.963 119.992 630.736 113.459 643.391 110.099C656.047 106.739 669.241 106.643 681.936 109.818C694.631 112.994 706.482 119.354 716.558 128.399C726.633 137.444 734.659 148.928 740.004 161.949C745.349 174.97 747.868 189.172 747.364 203.441L747.364 203.442Z" fill="white"/>
<path opacity="0.09" d="M747.364 203.442C746.827 218.349 743.006 232.892 736.228 245.828C729.451 258.764 719.918 269.708 708.445 277.726C696.971 285.743 683.898 290.595 670.343 291.866C656.788 293.138 643.153 290.792 630.605 285.029C624.719 282.324 619.137 278.885 613.969 274.78C604.091 266.96 595.869 256.892 589.867 245.266V245.256C583.466 232.82 579.782 218.927 579.105 204.667C578.427 190.407 580.774 176.17 585.961 163.072C591.147 149.975 599.033 138.375 608.998 129.183C618.963 119.992 630.736 113.459 643.391 110.099C656.047 106.739 669.241 106.643 681.936 109.818C694.631 112.994 706.482 119.354 716.558 128.399C726.633 137.444 734.659 148.928 740.004 161.949C745.349 174.97 747.868 189.172 747.364 203.441L747.364 203.442Z" fill="#231F20"/>
<path d="M683.122 129.528C683.122 129.528 703.256 129.798 696.314 160.226L694.424 160.327L690.585 160.532" fill="#0C0C0C"/>
<path d="M660.64 192.15C660.733 192.14 661.105 211.119 681.222 210.322C695.149 209.772 700.672 193.826 700.991 193.839C699.506 193.427 697.002 192.811 696.352 192.395C694.21 191.014 691.552 189.558 691.012 184.871C690.701 182.17 691.876 168.468 691.76 165.744L670.259 170.054C670.354 175.802 671.968 189.186 664.579 191.228C663.348 191.566 662.026 191.868 660.64 192.15Z" fill="#E98862"/>
<path opacity="0.52" d="M669.395 185.992C669.771 184.826 670.029 183.618 670.165 182.391C670.499 179.591 670.552 176.759 670.324 173.946C674.679 173.489 678.83 171.702 682.305 168.787C682.644 170.404 684.574 177.504 683.914 179.002C682.675 181.834 677.155 186.322 669.395 185.992Z" fill="#0C0C0C"/>
<path d="M674.276 182.638C682.704 181.977 692.872 176.35 693.225 163.825L693.544 152.527C693.897 140.004 688.183 129.649 677.434 129.284C666.682 128.917 658.359 138.798 658.006 151.321L657.865 156.323C657.844 158.042 657.929 159.761 658.121 161.467C658.599 165.979 659.34 172.84 662.049 177.525C664.606 181.948 668.891 183.059 674.276 182.638Z" fill="#E98862"/>
<path d="M692.449 167.62C695.717 167.731 698.474 163.987 698.575 160.405C698.676 156.822 696.083 154.755 692.816 154.645L691.064 156.988L689.64 167.525L692.449 167.62Z" fill="#E98862"/>
<path d="M658.559 165.249C659.149 166.016 659.905 166.61 660.758 166.975C661.611 167.34 662.533 167.466 663.442 167.34C665.385 167.072 666.674 167.947 668.296 167.771C669.658 167.624 669.894 166.934 672.218 166.783C681.189 166.2 687.921 165.58 688.358 153.235L694.067 147.674C694.067 147.674 696.618 181.884 679.745 186.432C669.377 189.224 659.652 188.204 658.402 177.525C657.386 168.848 658.559 165.249 658.559 165.249Z" fill="#0C0C0C"/>
<path d="M662.81 158.104C663.541 158.104 664.134 157.454 664.134 156.651C664.134 155.849 663.541 155.199 662.81 155.199C662.078 155.199 661.485 155.849 661.485 156.651C661.485 157.454 662.078 158.104 662.81 158.104Z" fill="#0C0C0C"/>
<path d="M674.646 157.834C675.377 157.834 675.971 157.183 675.971 156.381C675.971 155.579 675.377 154.928 674.646 154.928C673.914 154.928 673.321 155.579 673.321 156.381C673.321 157.183 673.914 157.834 674.646 157.834Z" fill="#0C0C0C"/>
<path d="M689.294 161.796C689.294 161.796 688.485 144.051 683.602 142.858C680.35 142.064 672.351 146.983 665.045 145.303C661.849 144.568 658.789 145.377 658.452 147.033C658.318 147.689 655.789 141.875 660.931 134.801C665.025 129.169 678.338 127.585 684.26 129.576C700.66 135.092 693.477 155.439 693.477 155.439L692.64 161.534L689.294 161.796Z" fill="#0C0C0C"/>
<path d="M696.747 147.487C701.574 147.487 705.487 143.196 705.487 137.903C705.487 132.61 701.574 128.319 696.747 128.319C691.92 128.319 688.007 132.61 688.007 137.903C688.007 143.196 691.92 147.487 696.747 147.487Z" fill="#0C0C0C"/>
<g opacity="0.52">
<path d="M668.456 167.201H668.436C667.383 167.168 665.621 166.984 665.641 166.12C665.66 165.405 667.646 157.734 667.873 156.861C667.892 156.786 667.938 156.722 668 156.684C668.062 156.646 668.136 156.637 668.204 156.658C668.273 156.68 668.33 156.73 668.365 156.798C668.4 156.866 668.408 156.947 668.389 157.022C667.507 160.419 666.191 165.65 666.177 166.134C666.276 166.342 667.36 166.575 668.45 166.61C668.522 166.609 668.59 166.639 668.641 166.694C668.692 166.748 668.721 166.822 668.721 166.9C668.722 166.978 668.695 167.054 668.645 167.109C668.595 167.165 668.528 167.197 668.456 167.198V167.201Z" fill="#0C0C0C"/>
</g>
<path d="M665.251 151.715C664.163 151.362 663.009 151.337 661.909 151.642C661.368 151.788 660.849 152.022 660.372 152.337C659.898 152.646 659.463 153.019 659.075 153.447C659.008 153.513 658.967 153.606 658.962 153.705C658.957 153.804 658.988 153.901 659.048 153.975C659.109 154.048 659.193 154.093 659.283 154.098C659.373 154.104 659.462 154.07 659.529 154.004L659.55 153.984C659.912 153.627 660.313 153.32 660.744 153.073C661.169 152.826 661.625 152.651 662.097 152.554C663.029 152.354 663.993 152.428 664.891 152.768L664.925 152.781C664.989 152.808 665.056 152.821 665.124 152.819C665.192 152.817 665.259 152.8 665.321 152.77C665.383 152.739 665.439 152.695 665.485 152.64C665.531 152.586 665.567 152.522 665.591 152.452C665.614 152.382 665.625 152.307 665.622 152.233C665.619 152.158 665.602 152.085 665.573 152.018C665.544 151.95 665.503 151.89 665.452 151.84C665.402 151.79 665.343 151.752 665.278 151.728L665.251 151.715Z" fill="#0C0C0C"/>
<path d="M673.057 152.769C673.92 152.334 674.873 152.158 675.819 152.258C676.298 152.304 676.767 152.43 677.212 152.631C677.663 152.831 678.089 153.093 678.48 153.411L678.502 153.427C678.575 153.479 678.663 153.498 678.749 153.481C678.834 153.464 678.911 153.412 678.962 153.335C679.014 153.258 679.036 153.162 679.026 153.067C679.015 152.973 678.971 152.886 678.904 152.826C678.48 152.44 678.013 152.116 677.515 151.859C677.011 151.596 676.475 151.418 675.923 151.33C674.801 151.145 673.655 151.294 672.603 151.762C672.48 151.82 672.382 151.929 672.332 152.066C672.281 152.203 672.282 152.356 672.333 152.492C672.385 152.629 672.484 152.737 672.607 152.794C672.731 152.852 672.871 152.853 672.996 152.798L673.021 152.787L673.057 152.769Z" fill="#0C0C0C"/>
<path d="M726.731 239.54C725.981 245.745 725.25 254.267 724.597 263.079C722.045 266.058 719.316 268.848 716.428 271.432C714.592 273.068 712.697 274.622 710.744 276.096C700.18 284.003 688.115 289.174 675.461 291.217C662.807 293.26 649.895 292.121 637.702 287.888C637.535 279.703 637.309 268.662 637.084 258.547C636.826 246.879 636.565 236.432 636.425 232.999C635.847 219.376 632.554 210.286 635.044 202.854C635.788 200.653 636.985 198.671 638.541 197.06C644.341 190.835 658.749 190.977 664.527 191.223C664.628 191.228 662.843 205.853 681.855 205.676C695.83 205.551 696.878 192.6 696.878 192.6C696.878 192.6 703.764 193.385 708.337 194.256C715.817 195.693 720.681 198.701 724.465 203.195C727.996 207.384 730.079 211.832 726.731 239.54Z" fill="#231F20"/>
<path d="M614.956 192.665L615.53 177.06C615.544 176.717 615.491 176.374 615.377 176.054C615.263 175.735 615.089 175.444 614.867 175.202C614.644 174.96 614.379 174.772 614.086 174.649C613.794 174.526 613.481 174.471 613.168 174.488C612.592 174.539 612.054 174.823 611.657 175.284C611.261 175.746 611.035 176.353 611.024 176.986L610.9 180.333L606.882 169.616C606.454 168.416 605.229 167.243 604.033 167.858C603.559 168.062 603.161 168.436 602.906 168.919C602.65 169.402 602.551 169.966 602.626 170.519C602.614 170.52 602.603 170.523 602.592 170.527C602.584 170.531 602.577 170.537 602.571 170.543L601.911 168.692C601.789 168.35 601.598 168.041 601.354 167.789C601.109 167.538 600.816 167.349 600.496 167.237C600.176 167.125 599.838 167.093 599.505 167.143C599.173 167.192 598.855 167.323 598.574 167.525C598.138 167.852 597.817 168.334 597.666 168.889C597.515 169.445 597.542 170.041 597.744 170.577L598.024 171.364C598.007 171.383 597.994 171.406 597.983 171.431C597.681 170.947 597.232 170.598 596.717 170.444C596.201 170.29 595.653 170.342 595.169 170.591C594.647 170.881 594.243 171.376 594.039 171.978C593.835 172.579 593.846 173.243 594.068 173.837L594.765 175.793C594.738 175.773 594.706 175.76 594.674 175.756C594.641 175.752 594.607 175.757 594.576 175.769C594.54 175.787 594.51 175.816 594.488 175.852C594.11 175.503 593.637 175.3 593.144 175.274C592.65 175.248 592.162 175.401 591.755 175.708C591.334 176.041 591.028 176.521 590.885 177.068C590.743 177.616 590.774 178.2 590.972 178.727L596.854 195.231C597.677 197.54 599.11 199.527 600.969 200.937C602.828 202.347 605.029 203.117 607.29 203.146C609.239 203.171 611.12 202.362 612.534 200.891C613.948 199.419 614.783 197.401 614.862 195.265L614.956 192.665Z" fill="#E98862"/>
<g opacity="0.2">
<path d="M606.554 181.149C606.503 181.17 606.446 181.169 606.396 181.146C606.346 181.122 606.306 181.078 606.286 181.022L602.477 170.824C602.465 170.796 602.459 170.766 602.458 170.735C602.457 170.704 602.461 170.673 602.472 170.644C602.482 170.615 602.498 170.589 602.517 170.567C602.537 170.545 602.561 170.527 602.587 170.515C602.613 170.504 602.641 170.498 602.67 170.499C602.698 170.499 602.726 170.506 602.752 170.519C602.777 170.531 602.8 170.55 602.82 170.573C602.839 170.595 602.853 170.622 602.863 170.652L606.671 180.85C606.682 180.877 606.687 180.907 606.687 180.937C606.687 180.967 606.681 180.997 606.67 181.024C606.66 181.052 606.644 181.077 606.625 181.098C606.606 181.119 606.583 181.136 606.557 181.147L606.554 181.149Z" fill="#0C0C0C"/>
</g>
<g opacity="0.2">
<path d="M602.499 183.115C602.448 183.137 602.391 183.136 602.341 183.112C602.291 183.088 602.251 183.044 602.231 182.988L597.981 171.607C597.961 171.551 597.962 171.489 597.983 171.434C598.004 171.379 598.044 171.336 598.095 171.313C598.145 171.293 598.201 171.295 598.251 171.318C598.3 171.341 598.34 171.383 598.363 171.437L602.613 182.818C602.634 182.874 602.633 182.937 602.612 182.993C602.591 183.049 602.55 183.093 602.499 183.116V183.115Z" fill="#0C0C0C"/>
</g>
<g opacity="0.2">
<path d="M598.118 185.272C598.067 185.294 598.01 185.293 597.96 185.269C597.91 185.245 597.87 185.201 597.85 185.145L594.46 176.067C594.439 176.011 594.439 175.948 594.46 175.893C594.482 175.837 594.522 175.793 594.573 175.77C594.624 175.747 594.681 175.747 594.732 175.77C594.783 175.794 594.823 175.838 594.844 175.894L598.237 184.97C598.257 185.026 598.257 185.089 598.236 185.145C598.214 185.201 598.174 185.245 598.123 185.268L598.118 185.272Z" fill="#0C0C0C"/>
</g>
<path d="M662.062 217.131L627.429 275.522C626.169 277.644 624.482 279.422 622.497 280.717C619.546 278.932 616.697 276.95 613.968 274.78C608.152 270.178 602.895 264.779 598.327 258.714L591.053 196.864L620.166 191.748L623.485 221.52L636.786 199.096L662.062 217.131Z" fill="#231F20"/>
<path d="M666.122 170.386C669.299 170.618 672.456 169.681 675.093 167.725C675.184 167.658 675.291 167.621 675.402 167.618C675.512 167.615 675.62 167.646 675.715 167.708C675.809 167.77 675.886 167.861 675.935 167.969C675.984 168.077 676.005 168.198 675.993 168.318C675.781 170.376 674.854 174.161 670.917 174.643C668.375 174.954 666.533 172.813 665.605 171.39C665.541 171.291 665.504 171.174 665.498 171.054C665.492 170.933 665.518 170.813 665.572 170.707C665.626 170.602 665.707 170.516 665.805 170.459C665.902 170.402 666.012 170.377 666.122 170.386Z" fill="white"/>
<path d="M736.122 246.103C731.004 255.779 724.332 264.36 716.428 271.432C714.592 273.068 712.697 274.622 710.744 276.096L697.217 219.663L727.68 210.876L736.122 246.103Z" fill="#231F20"/>
<path d="M711.04 275.875C710.943 275.944 710.839 276.022 710.744 276.096C710.649 276.169 710.551 276.243 710.454 276.311L700.145 233.32L700.795 233.134L711.04 275.875Z" fill="#0C0C0C"/>
<path d="M637.165 261.205C637.082 261.201 637.002 261.163 636.943 261.098C636.883 261.033 636.848 260.946 636.844 260.854L636.18 244.834C636.176 244.736 636.207 244.641 636.267 244.569C636.327 244.497 636.411 244.454 636.5 244.45C636.588 244.445 636.675 244.48 636.741 244.546C636.807 244.612 636.846 244.703 636.85 244.801L637.514 260.821C637.518 260.918 637.486 261.013 637.427 261.085C637.367 261.157 637.283 261.2 637.195 261.205H637.165Z" fill="#0C0C0C"/>
<path d="M386.619 409.451C434.036 409.451 472.474 367.299 472.474 315.302C472.474 263.304 434.036 221.152 386.619 221.152C339.202 221.152 300.764 263.304 300.764 315.302C300.764 367.299 339.202 409.451 386.619 409.451Z" fill="white"/>
<path opacity="0.09" d="M472.475 315.3C472.475 333.92 467.44 352.123 458.006 367.606C448.572 383.088 435.164 395.155 419.476 402.281C403.788 409.407 386.526 411.271 369.872 407.639C353.218 404.006 337.92 395.039 325.913 381.872C313.906 368.706 305.729 351.93 302.417 333.667C299.104 315.404 300.804 296.474 307.302 279.271C313.8 262.067 324.805 247.363 338.923 237.018C353.042 226.673 369.641 221.151 386.621 221.151C397.907 221.106 409.09 223.51 419.525 228.225C429.961 232.94 439.442 239.873 447.422 248.625C455.403 257.376 461.725 267.773 466.025 279.217C470.325 290.66 472.517 302.923 472.475 315.3Z" fill="#231F20"/>
<path d="M348.615 259.77C348.615 259.77 347.752 273.983 344.836 279.139C336.441 293.984 334.009 310.684 342.416 319.411C350.822 328.138 404.441 328.258 408.502 308.189C411.92 291.294 404.583 289.478 402.798 275.541C401.99 269.235 399.767 256.011 399.767 256.011" fill="#0A0A0A"/>
<path d="M394.624 305.245C394.531 305.232 393.505 323.92 373.706 322.294C360 321.168 355.113 305.221 354.799 305.221C356.277 304.877 358.765 304.376 359.423 303.993C361.581 302.72 364.251 301.398 364.947 296.801C365.349 294.155 364.668 280.6 364.88 277.92L385.919 283.069C385.625 288.728 383.567 301.853 390.778 304.175C391.975 304.556 393.267 304.91 394.624 305.245Z" fill="#E98862"/>
<path opacity="0.5" d="M386.209 298.809C385.88 297.645 385.668 296.444 385.577 295.228C385.346 292.455 385.392 289.662 385.714 286.9C381.438 286.268 377.41 284.333 374.087 281.315C373.696 282.897 371.547 289.81 372.143 291.314C373.27 294.155 378.55 298.809 386.209 298.809Z" fill="#0C0C0C"/>
<path d="M383.489 292.987C375.194 293.869 364.462 290.228 362.239 278.115L360.233 267.185C358.01 255.072 362.009 243.972 372.409 241.677C382.81 239.381 392.386 247.482 394.609 259.598L395.498 264.437C396.351 269.085 398.289 291.416 383.489 292.987Z" fill="#E98862"/>
<path opacity="0.1" d="M378.216 277.116C379.581 276.938 380.59 275.903 380.471 274.805C380.352 273.706 379.148 272.961 377.783 273.14C376.418 273.318 375.409 274.353 375.528 275.451C375.648 276.55 376.851 277.295 378.216 277.116Z" fill="#0C0C0C"/>
<path opacity="0.1" d="M392.64 272.724C392.762 273.82 393.965 274.561 395.33 274.388C395.566 274.357 395.799 274.299 396.024 274.216C396.087 272.908 396.091 271.65 396.056 270.486C395.677 270.383 395.284 270.358 394.896 270.413C393.531 270.588 392.522 271.623 392.64 272.724Z" fill="#0C0C0C"/>
<path opacity="0.5" d="M386.609 276.113H386.629C387.05 276.015 387.466 275.893 387.875 275.745C388.486 275.525 389.282 275.153 389.174 274.548C389.047 273.857 385.957 266.791 385.604 265.987C385.571 265.921 385.516 265.872 385.451 265.849C385.386 265.826 385.315 265.831 385.253 265.864C385.191 265.896 385.143 265.954 385.119 266.024C385.094 266.094 385.095 266.172 385.122 266.242C386.44 269.255 388.563 274.199 388.649 274.663C388.582 274.88 387.569 275.303 386.523 275.535C386.456 275.552 386.398 275.595 386.36 275.657C386.322 275.719 386.307 275.795 386.318 275.869C386.329 275.942 386.365 276.009 386.419 276.054C386.473 276.1 386.541 276.121 386.609 276.114V276.113Z" fill="#0C0C0C"/>
<path d="M351.934 271.109L361.259 269.111C368.302 265.878 370.3 252.421 370.3 252.421C370.3 252.421 378.992 261.499 399.767 256.009C399.767 256.009 395.254 224.206 364.579 233.86C354.688 236.972 347.681 248.028 348.723 262.672C349.453 272.936 351.934 271.109 351.934 271.109Z" fill="#0A0A0A"/>
<path d="M363.562 281.663C360.402 282.361 357.159 279.218 356.525 275.752C355.892 272.285 358.1 269.809 361.261 269.111L363.316 271.074L366.282 281.063L363.562 281.663Z" fill="#E98862"/>
<path d="M387.846 260.352C388.636 259.738 389.562 259.365 390.526 259.272C391.011 259.221 391.5 259.251 391.976 259.359C392.457 259.467 392.923 259.639 393.365 259.874L393.379 259.88C393.427 259.902 393.482 259.902 393.53 259.881C393.579 259.86 393.619 259.82 393.641 259.768C393.663 259.716 393.667 259.656 393.65 259.602C393.634 259.547 393.599 259.501 393.553 259.474C393.085 259.203 392.588 258.998 392.074 258.864C391.556 258.726 391.022 258.674 390.49 258.71C389.413 258.775 388.372 259.156 387.475 259.812C387.44 259.836 387.41 259.868 387.387 259.905C387.363 259.942 387.347 259.984 387.338 260.029C387.33 260.073 387.33 260.119 387.338 260.163C387.346 260.207 387.362 260.249 387.386 260.287C387.409 260.324 387.439 260.356 387.473 260.38C387.508 260.405 387.547 260.421 387.587 260.429C387.628 260.437 387.67 260.435 387.71 260.425C387.75 260.415 387.788 260.396 387.821 260.369L387.828 260.364L387.846 260.352Z" fill="#0C0C0C"/>
<path d="M379.328 261.643C378.27 261.412 377.174 261.497 376.155 261.889C375.652 262.079 375.177 262.352 374.748 262.697C374.32 263.038 373.932 263.436 373.595 263.882C373.56 263.926 373.543 263.984 373.546 264.042C373.55 264.1 373.574 264.154 373.613 264.193C373.652 264.233 373.704 264.254 373.757 264.252C373.81 264.25 373.86 264.226 373.898 264.185L373.908 264.172C374.234 263.77 374.604 263.414 375.011 263.113C375.413 262.812 375.854 262.579 376.319 262.423C377.244 262.105 378.228 262.061 379.173 262.296L379.196 262.302C379.236 262.313 379.277 262.316 379.318 262.31C379.358 262.304 379.397 262.289 379.433 262.266C379.468 262.243 379.498 262.212 379.523 262.176C379.547 262.14 379.565 262.099 379.574 262.055C379.584 262.012 379.585 261.966 379.579 261.922C379.572 261.878 379.558 261.835 379.536 261.797C379.514 261.759 379.486 261.726 379.452 261.7C379.419 261.674 379.381 261.656 379.341 261.646L379.328 261.643Z" fill="#0C0C0C"/>
<path d="M361.265 268.944C367.532 266.386 369.612 261.639 370.253 258.106C370.667 255.751 370.629 253.326 370.139 250.988L369.945 251.046C370.427 253.354 370.465 255.747 370.054 258.072C369.422 261.546 367.374 266.217 361.194 268.737L361.265 268.944Z" fill="#0C0C0C"/>
<path d="M440.51 301.523L444.263 287.56C444.346 287.253 444.485 286.969 444.674 286.724C444.862 286.48 445.094 286.281 445.356 286.141C445.618 286.001 445.904 285.922 446.196 285.909C446.487 285.897 446.778 285.951 447.049 286.068C447.544 286.302 447.941 286.729 448.165 287.266C448.389 287.803 448.424 288.412 448.261 288.975L447.457 291.969L453.926 283.828C454.631 282.909 456.031 282.275 456.919 283.211C457.283 283.546 457.531 284.006 457.625 284.517C457.719 285.027 457.652 285.557 457.436 286.02C457.446 286.025 457.455 286.031 457.463 286.039C457.469 286.045 457.473 286.052 457.478 286.06L458.565 284.642C458.766 284.38 459.018 284.17 459.303 284.029C459.588 283.887 459.898 283.816 460.21 283.823C460.523 283.829 460.831 283.911 461.11 284.064C461.39 284.217 461.636 284.437 461.828 284.707C462.124 285.139 462.275 285.669 462.257 286.209C462.239 286.749 462.052 287.265 461.728 287.672L461.266 288.276C461.276 288.299 461.282 288.324 461.283 288.349C461.682 288.021 462.174 287.86 462.671 287.893C463.169 287.927 463.639 288.153 463.998 288.532C464.38 288.959 464.601 289.528 464.617 290.126C464.633 290.724 464.443 291.307 464.085 291.758L462.935 293.255C462.965 293.246 462.996 293.246 463.027 293.253C463.057 293.26 463.085 293.275 463.109 293.296C463.136 293.324 463.155 293.359 463.164 293.399C463.594 293.215 464.067 293.192 464.509 293.332C464.952 293.472 465.341 293.768 465.615 294.174C465.896 294.606 466.035 295.129 466.011 295.659C465.987 296.189 465.8 296.695 465.481 297.094L455.788 309.734C454.432 311.501 452.626 312.785 450.6 313.419C448.574 314.054 446.422 314.01 444.419 313.295C442.692 312.678 441.253 311.347 440.406 309.584C439.56 307.822 439.374 305.767 439.887 303.857L440.51 301.523Z" fill="#E98862"/>
<g opacity="0.2">
<path d="M451.066 294.116C451.105 294.151 451.155 294.168 451.205 294.163C451.255 294.159 451.301 294.133 451.334 294.092L457.477 286.341C457.511 286.299 457.527 286.243 457.524 286.187C457.52 286.131 457.496 286.079 457.457 286.042C457.419 286.005 457.368 285.986 457.317 285.99C457.265 285.994 457.218 286.02 457.184 286.063L451.041 293.813C451.025 293.834 451.012 293.859 451.004 293.885C450.996 293.912 450.993 293.939 450.995 293.967C450.996 293.995 451.003 294.022 451.015 294.047C451.026 294.072 451.042 294.095 451.061 294.113L451.066 294.116Z" fill="#0C0C0C"/>
</g>
<g opacity="0.2">
<path d="M454.109 297.181C454.148 297.216 454.197 297.233 454.247 297.228C454.297 297.224 454.344 297.198 454.377 297.157L461.232 288.507C461.248 288.486 461.261 288.462 461.269 288.435C461.277 288.409 461.281 288.381 461.279 288.353C461.277 288.325 461.27 288.298 461.259 288.273C461.247 288.248 461.232 288.226 461.212 288.207C461.173 288.172 461.123 288.155 461.072 288.159C461.021 288.163 460.974 288.188 460.939 288.229L454.089 296.878C454.072 296.899 454.059 296.924 454.051 296.95C454.043 296.977 454.04 297.005 454.042 297.033C454.044 297.06 454.05 297.088 454.062 297.113C454.073 297.137 454.089 297.16 454.108 297.178L454.109 297.181Z" fill="#0C0C0C"/>
</g>
<g opacity="0.2">
<path d="M457.386 300.522C457.425 300.557 457.475 300.573 457.525 300.569C457.575 300.564 457.621 300.539 457.655 300.497L463.123 293.598C463.153 293.555 463.168 293.501 463.163 293.447C463.158 293.393 463.134 293.343 463.097 293.307C463.059 293.271 463.011 293.252 462.961 293.255C462.912 293.257 462.865 293.28 462.83 293.319L457.362 300.219C457.345 300.24 457.332 300.265 457.324 300.291C457.316 300.317 457.313 300.345 457.315 300.373C457.317 300.401 457.323 300.428 457.335 300.453C457.346 300.478 457.362 300.501 457.381 300.519L457.386 300.522Z" fill="#0C0C0C"/>
</g>
<path d="M463.35 307.618L448.841 379.798C448.807 379.96 448.774 380.129 448.734 380.29C445.475 384.029 441.945 387.472 438.179 390.585C437.422 391.203 436.664 391.813 435.887 392.401C435.406 392.46 434.923 392.489 434.44 392.489C431.854 392.489 429.313 391.742 427.074 390.324C424.834 388.907 422.974 386.868 421.68 384.413L394.03 331.947L419.562 315.773L428.214 332.19L434.553 300.656L463.35 307.618Z" fill="#379777"/>
<path d="M418.698 340.526C418.611 341.672 418.437 343.715 418.195 346.405C416.989 360.155 414.168 390.799 412.861 404.961C396.352 410.748 378.636 410.945 362.024 405.526H362.017C349.749 401.499 338.46 394.508 328.979 385.067C329.033 372.405 328.865 358.163 328.088 349.006C325.763 321.646 327.961 317.362 331.573 313.401C331.868 313.078 332.176 312.762 332.484 312.453C336.217 308.735 340.901 306.31 347.73 305.295C352.247 304.627 359.042 304.142 359.042 304.142C359.042 304.142 359.618 316.913 373.336 317.619C392.013 318.582 390.766 304.142 390.86 304.142C395.558 304.142 406.012 304.465 412.606 308.147C412.613 308.147 412.613 308.147 412.62 308.154C413.948 308.863 415.156 309.815 416.192 310.969C423.744 319.743 420.018 323.496 418.698 340.526Z" fill="#379777"/>
<path d="M389.389 278.5C386.694 280.003 383.619 280.478 380.651 279.851C380.548 279.83 380.442 279.841 380.344 279.883C380.247 279.926 380.163 279.998 380.102 280.091C380.04 280.184 380.004 280.294 379.998 280.408C379.992 280.523 380.016 280.637 380.066 280.737C380.953 282.447 383.051 285.371 386.652 284.18C388.978 283.411 389.857 280.787 390.183 279.164C390.205 279.052 390.198 278.935 390.162 278.827C390.126 278.719 390.062 278.624 389.979 278.555C389.896 278.485 389.796 278.443 389.691 278.433C389.587 278.423 389.482 278.447 389.389 278.5Z" fill="white"/>
<path d="M389.558 265.356C390.277 265.356 390.86 264.717 390.86 263.928C390.86 263.14 390.277 262.5 389.558 262.5C388.839 262.5 388.256 263.14 388.256 263.928C388.256 264.717 388.839 265.356 389.558 265.356Z" fill="#0C0C0C"/>
<path d="M377.044 267.758C377.763 267.758 378.346 267.119 378.346 266.331C378.346 265.542 377.763 264.903 377.044 264.903C376.325 264.903 375.742 265.542 375.742 266.331C375.742 267.119 376.325 267.758 377.044 267.758Z" fill="#0C0C0C"/>
<path d="M415.818 371.35C415.81 371.351 415.801 371.351 415.793 371.35C415.74 371.342 415.692 371.312 415.66 371.265C415.628 371.219 415.614 371.16 415.621 371.102L417.923 345.669C417.926 345.64 417.935 345.612 417.948 345.586C417.961 345.561 417.979 345.539 418 345.521C418.021 345.504 418.046 345.491 418.071 345.484C418.097 345.477 418.124 345.476 418.15 345.48C418.203 345.488 418.251 345.519 418.283 345.566C418.315 345.612 418.329 345.671 418.322 345.729L416.02 371.162C416.013 371.215 415.988 371.263 415.951 371.298C415.914 371.333 415.867 371.351 415.818 371.35Z" fill="#0C0C0C"/>
<path d="M401.885 370.125L414.467 363.963C414.743 363.829 415.042 363.759 415.344 363.757C415.647 363.756 415.946 363.824 416.223 363.956C416.5 364.088 416.75 364.282 416.955 364.526C417.16 364.769 417.317 365.057 417.415 365.371C417.581 365.956 417.542 366.588 417.307 367.144C417.072 367.7 416.656 368.141 416.142 368.38L413.444 369.703L423.668 369.818C424.807 369.809 426.205 370.596 426.13 371.995C426.133 372.535 425.969 373.061 425.665 373.486C425.361 373.912 424.934 374.211 424.454 374.336C424.457 374.348 424.459 374.36 424.459 374.372C424.458 374.381 424.456 374.39 424.454 374.399L426.208 374.386C426.532 374.383 426.853 374.46 427.146 374.611C427.44 374.762 427.7 374.982 427.906 375.257C428.112 375.531 428.26 375.853 428.339 376.198C428.417 376.543 428.425 376.903 428.361 377.252C428.249 377.799 427.968 378.287 427.567 378.635C427.166 378.982 426.669 379.169 426.157 379.162L425.411 379.168C425.402 379.192 425.388 379.214 425.371 379.232C425.876 379.356 426.324 379.674 426.635 380.127C426.946 380.58 427.101 381.14 427.07 381.706C427.02 382.325 426.758 382.9 426.339 383.317C425.919 383.734 425.371 383.962 424.805 383.955L422.952 383.969C422.978 383.989 423 384.016 423.015 384.047C423.03 384.078 423.038 384.113 423.038 384.148C423.037 384.189 423.025 384.23 423.003 384.264C423.425 384.512 423.761 384.905 423.959 385.383C424.158 385.861 424.207 386.398 424.1 386.909C423.978 387.444 423.696 387.918 423.298 388.254C422.9 388.591 422.41 388.77 421.908 388.764L406.274 388.886C404.087 388.903 401.945 388.203 400.123 386.876C398.301 385.55 396.881 383.657 396.046 381.44C395.326 379.528 395.314 377.384 396.013 375.463C396.712 373.541 398.066 371.995 399.789 371.151L401.885 370.125Z" fill="#E98862"/>
<g opacity="0.2">
<path d="M414.335 374.276C414.335 374.335 414.356 374.391 414.393 374.432C414.431 374.473 414.482 374.497 414.536 374.497L424.258 374.593C424.311 374.593 424.363 374.571 424.401 374.53C424.439 374.489 424.46 374.433 424.461 374.374C424.461 374.316 424.44 374.259 424.403 374.218C424.366 374.176 424.315 374.152 424.261 374.152L414.538 374.056C414.484 374.056 414.433 374.079 414.395 374.12C414.358 374.162 414.337 374.218 414.337 374.276H414.335Z" fill="#0C0C0C"/>
</g>
<g opacity="0.2">
<path d="M414.178 378.979C414.178 379.038 414.199 379.094 414.237 379.135C414.274 379.177 414.325 379.2 414.379 379.2L425.228 379.307C425.282 379.307 425.333 379.284 425.371 379.243C425.408 379.201 425.429 379.145 425.429 379.087C425.428 379.029 425.406 378.974 425.369 378.933C425.332 378.892 425.281 378.868 425.228 378.866L414.378 378.759C414.325 378.759 414.274 378.782 414.236 378.824C414.198 378.865 414.178 378.921 414.178 378.979Z" fill="#0C0C0C"/>
</g>
<g opacity="0.2">
<path d="M413.981 384.067C413.981 384.125 414.002 384.181 414.04 384.223C414.077 384.264 414.128 384.287 414.182 384.287L422.837 384.373C422.89 384.373 422.941 384.35 422.979 384.309C423.017 384.267 423.038 384.211 423.038 384.153C423.038 384.094 423.017 384.038 422.979 383.997C422.941 383.956 422.89 383.932 422.837 383.932L414.182 383.847C414.128 383.847 414.077 383.87 414.04 383.912C414.002 383.953 413.981 384.009 413.981 384.068V384.067Z" fill="#0C0C0C"/>
</g>
<path d="M405.489 394.694L362.024 405.526H362.017C349.749 401.499 338.459 394.508 328.979 385.067C327.96 384.053 326.964 383.014 325.99 381.95C324.293 380.092 322.669 378.16 321.118 376.153L327.203 322.477C327.867 318.15 330.071 314.29 333.331 311.745C336.59 309.2 340.638 308.179 344.583 308.907C348.529 309.635 352.049 312.052 354.37 315.627C356.691 319.201 357.621 323.64 356.958 327.967L353.111 378.365L401.576 366.334L405.489 394.694Z" fill="#379777"/>
<path d="M343.307 380.345C343.281 380.347 343.255 380.343 343.229 380.334C343.204 380.325 343.181 380.311 343.161 380.292C343.141 380.273 343.124 380.25 343.112 380.224C343.101 380.198 343.093 380.17 343.091 380.141C343.089 380.112 343.093 380.083 343.101 380.055C343.109 380.028 343.122 380.002 343.14 379.98C343.157 379.958 343.178 379.94 343.202 379.927C343.225 379.914 343.251 379.906 343.277 379.904L352.994 377.626C353.021 377.621 353.047 377.623 353.073 377.63C353.099 377.636 353.123 377.649 353.144 377.666C353.165 377.683 353.183 377.705 353.197 377.73C353.211 377.755 353.22 377.782 353.224 377.811C353.227 377.839 353.226 377.869 353.22 377.897C353.213 377.925 353.202 377.951 353.186 377.975C353.17 377.998 353.151 378.018 353.128 378.032C353.105 378.047 353.08 378.057 353.054 378.061L343.334 380.34C343.325 380.342 343.316 380.344 343.307 380.345Z" fill="#0C0C0C"/>
<path d="M405.489 394.694C405.5 394.751 405.491 394.809 405.464 394.859C405.436 394.908 405.393 394.944 405.342 394.959L363.116 405.872C362.848 405.79 362.587 405.71 362.325 405.621L405.047 394.591L401.241 366.666L353.064 378.063C353.033 378.069 353.001 378.066 352.971 378.056C352.94 378.046 352.913 378.029 352.89 378.005C352.87 377.979 352.855 377.948 352.845 377.915C352.836 377.882 352.833 377.848 352.836 377.814L355.537 349.014C355.542 348.985 355.551 348.958 355.566 348.934C355.58 348.909 355.599 348.888 355.621 348.872C355.642 348.855 355.667 348.844 355.693 348.838C355.719 348.832 355.745 348.831 355.771 348.837C355.824 348.846 355.871 348.877 355.902 348.924C355.934 348.971 355.947 349.03 355.939 349.087L353.278 377.593L401.328 366.173C401.354 366.165 401.381 366.164 401.408 366.169C401.434 366.174 401.46 366.185 401.482 366.203C401.505 366.216 401.525 366.235 401.541 366.258C401.557 366.28 401.569 366.306 401.576 366.334L405.489 394.694Z" fill="#0C0C0C"/>
<path d="M78.7244 517.929C122.203 517.929 157.449 479.278 157.449 431.599C157.449 383.921 122.203 345.27 78.7244 345.27C35.2461 345.27 0 383.921 0 431.599C0 479.278 35.2461 517.929 78.7244 517.929Z" fill="white"/>
<path opacity="0.09" d="M78.7244 517.929C122.203 517.929 157.449 479.278 157.449 431.599C157.449 383.921 122.203 345.27 78.7244 345.27C35.2461 345.27 0 383.921 0 431.599C0 479.278 35.2461 517.929 78.7244 517.929Z" fill="#231F20"/>
<path d="M57.0446 382.633C57.0446 382.633 57.8977 408.634 73.7231 409.829L76.4037 375.542L57.0446 382.633Z" fill="#0A0A0A"/>
<path d="M60.0924 415.14C65.2702 415.14 69.4677 410.537 69.4677 404.859C69.4677 399.181 65.2702 394.578 60.0924 394.578C54.9146 394.578 50.7171 399.181 50.7171 404.859C50.7171 410.537 54.9146 415.14 60.0924 415.14Z" fill="#0A0A0A"/>
<path d="M96.7754 421.896C96.6916 421.884 95.7655 438.744 77.9048 437.274C65.54 436.261 61.1318 421.874 60.849 421.874C62.262 421.617 63.6558 421.246 65.0193 420.765C66.9661 419.618 69.3752 418.425 70.0025 414.279C70.3644 411.889 69.7512 399.663 69.9395 397.245L88.9193 401.891C88.6512 406.997 86.7976 418.835 93.3034 420.931C94.385 421.277 95.551 421.596 96.7754 421.896Z" fill="#E98862"/>
<path opacity="0.5" d="M89.1847 416.091C88.8871 415.039 88.6957 413.955 88.6137 412.857C88.4053 410.356 88.4468 407.837 88.7377 405.345C84.8801 404.774 81.2459 403.028 78.2479 400.305C77.8954 401.732 75.9574 407.969 76.4942 409.325C77.5088 411.894 82.2755 416.091 89.1847 416.091Z" fill="#0C0C0C"/>
<path d="M86.2113 411.549C78.6943 411.654 69.2969 407.494 68.1321 396.421L67.0814 386.427C65.916 375.353 70.2753 365.703 79.7833 364.503C89.2906 363.301 97.341 371.378 98.5064 382.452L98.9715 386.875C99.4184 391.126 99.6235 411.362 86.2113 411.549Z" fill="#E98862"/>
<path d="M96.2467 386.578C96.8977 386.578 97.4254 385.999 97.4254 385.285C97.4254 384.572 96.8977 383.993 96.2467 383.993C95.5956 383.993 95.0679 384.572 95.0679 385.285C95.0679 385.999 95.5956 386.578 96.2467 386.578Z" fill="#0C0C0C"/>
<path d="M84.1982 388.089C84.8493 388.089 85.377 387.51 85.377 386.796C85.377 386.082 84.8493 385.504 84.1982 385.504C83.5472 385.504 83.0195 386.082 83.0195 386.796C83.0195 387.51 83.5472 388.089 84.1982 388.089Z" fill="#0C0C0C"/>
<path opacity="0.5" d="M90.1772 396.638H90.196C90.5812 396.586 90.9635 396.511 91.3412 396.413C91.9055 396.262 92.6494 395.998 92.5911 395.444C92.524 394.813 90.2328 388.204 89.9715 387.453C89.9602 387.421 89.9431 387.391 89.9213 387.366C89.8996 387.341 89.8735 387.32 89.8445 387.306C89.8156 387.292 89.7844 387.284 89.7527 387.283C89.721 387.282 89.6895 387.288 89.6599 387.3C89.6302 387.313 89.6031 387.331 89.5801 387.355C89.5571 387.379 89.5386 387.408 89.5256 387.44C89.5127 387.471 89.5056 387.506 89.5047 387.54C89.5038 387.575 89.5092 387.61 89.5205 387.642C90.4982 390.456 92.067 395.08 92.1112 395.505C91.508 395.878 90.8321 396.086 90.1403 396.112C90.0765 396.118 90.0173 396.151 89.9756 396.204C89.934 396.257 89.9133 396.326 89.9182 396.396C89.9231 396.466 89.9531 396.531 90.0017 396.577C90.0503 396.623 90.1134 396.645 90.1772 396.64V396.638Z" fill="#0C0C0C"/>
<path opacity="0.5" d="M88.4777 401.246C90.0219 401.15 91.5238 400.656 92.8624 399.807C92.9152 399.771 92.9533 399.714 92.9689 399.648C92.9846 399.582 92.9766 399.512 92.9465 399.453C92.9165 399.393 92.8667 399.349 92.8076 399.328C92.7484 399.308 92.6843 399.313 92.6286 399.343C89.7376 401.097 86.9725 401.199 84.6337 399.637C84.5865 399.604 84.5377 399.573 84.4877 399.546C84.4297 399.521 84.3653 399.522 84.3078 399.548C84.2503 399.574 84.2041 399.623 84.1788 399.685C84.1536 399.748 84.1511 399.818 84.1721 399.882C84.193 399.947 84.2357 399.999 84.2913 400.03C84.3094 400.04 84.3402 400.061 84.3824 400.09C85.6121 400.914 87.038 401.316 88.4777 401.246Z" fill="#0C0C0C"/>
<path d="M59.3512 389.268L67.8708 388.244C74.4241 385.923 77.1469 373.987 77.1469 373.987C77.1469 373.987 83.0193 381.31 100.422 377.967C100.422 377.967 99.7475 353.364 73.2808 356.828C64.0657 358.035 57.117 368.169 57.0453 381.42C56.9957 390.705 59.3512 389.268 59.3512 389.268Z" fill="#0A0A0A"/>
<path d="M69.0778 399.72C66.1881 400.087 63.4894 396.992 63.1564 393.823C62.8233 390.654 64.9812 388.612 67.8708 388.246L69.5831 390.181L71.562 399.405L69.0778 399.72Z" fill="#E98862"/>
<path d="M92.0777 382.06C92.93 381.543 93.8932 381.286 94.8668 381.316C95.3476 381.328 95.8241 381.419 96.2802 381.586C96.7333 381.749 97.1658 381.975 97.5675 382.257C97.6077 382.285 97.6365 382.329 97.6479 382.38C97.6593 382.43 97.6524 382.484 97.6286 382.529C97.6049 382.575 97.5661 382.608 97.5204 382.623C97.4747 382.637 97.4255 382.632 97.3832 382.608L97.3712 382.601C96.9906 382.353 96.5831 382.159 96.1582 382.022C95.7374 381.885 95.3 381.817 94.8608 381.823C93.987 381.828 93.1299 382.086 92.3766 382.572L92.3585 382.585C92.3274 382.607 92.2924 382.622 92.2558 382.63C92.2191 382.637 92.1815 382.636 92.1452 382.627C92.1089 382.618 92.0745 382.601 92.0443 382.577C92.014 382.554 91.9885 382.523 91.9691 382.488C91.9498 382.454 91.937 382.415 91.9316 382.374C91.9262 382.334 91.9283 382.293 91.9378 382.253C91.9472 382.214 91.9638 382.177 91.9866 382.144C92.0094 382.112 92.0379 382.085 92.0703 382.065L92.0777 382.06Z" fill="#0C0C0C"/>
<path d="M84.4421 383.6C83.609 383.311 82.7207 383.269 81.8681 383.479C81.4386 383.582 81.0258 383.755 80.6437 383.993C80.2576 384.23 79.9 384.519 79.5795 384.854L79.5695 384.864C79.533 384.894 79.4879 384.908 79.4428 384.903C79.3976 384.899 79.3555 384.876 79.3245 384.84C79.2935 384.804 79.2757 384.756 79.2745 384.706C79.2734 384.657 79.2889 384.608 79.3182 384.57C79.6523 384.197 80.0278 383.871 80.436 383.601C80.8467 383.327 81.2926 383.121 81.7588 382.992C82.7018 382.724 83.693 382.738 84.6291 383.034C84.6652 383.044 84.6992 383.062 84.7288 383.087C84.7585 383.112 84.7833 383.143 84.8017 383.178C84.8201 383.214 84.8318 383.253 84.836 383.294C84.8402 383.335 84.8369 383.376 84.8262 383.415C84.8156 383.454 84.7978 383.491 84.774 383.522C84.7502 383.554 84.7208 383.58 84.6876 383.599C84.6544 383.618 84.6181 383.629 84.5809 383.632C84.5437 383.635 84.5063 383.63 84.4709 383.616H84.4635L84.4421 383.6Z" fill="#0C0C0C"/>
<path opacity="0.52" d="M88.6392 403.75C88.9186 403.737 89.1966 403.699 89.4701 403.635C89.531 403.618 89.5836 403.576 89.6169 403.518C89.6502 403.46 89.6615 403.39 89.6486 403.322C89.6356 403.255 89.5994 403.196 89.5475 403.158C89.4956 403.119 89.432 403.104 89.3703 403.116C88.9432 403.253 88.4944 403.288 88.0538 403.22C87.6133 403.151 87.1912 402.98 86.8157 402.718C86.7661 402.674 86.7025 402.653 86.6387 402.66C86.575 402.667 86.5165 402.701 86.4759 402.756C86.4354 402.81 86.4163 402.88 86.4227 402.95C86.4291 403.02 86.4605 403.084 86.5101 403.128C87.1329 403.599 87.8853 403.819 88.6392 403.75Z" fill="#0C0C0C"/>
<path opacity="0.1" d="M82.5655 396.843C83.805 396.795 84.784 395.948 84.7522 394.951C84.7203 393.954 83.6898 393.185 82.4503 393.232C81.2108 393.28 80.2318 394.127 80.2636 395.124C80.2955 396.121 81.3261 396.89 82.5655 396.843Z" fill="#0C0C0C"/>
<path opacity="0.1" d="M95.8305 394.091C95.8654 395.087 96.8954 395.854 98.1352 395.81C98.3494 395.801 98.5623 395.768 98.7705 395.712C98.9172 394.542 99.007 393.412 99.0559 392.362C98.7222 392.237 98.3702 392.182 98.0179 392.199C96.7808 392.245 95.8024 393.089 95.8305 394.091Z" fill="#0C0C0C"/>
<path d="M123.45 439.654C123.397 445.541 121.554 452.559 120.897 461.039C120.723 463.303 116.293 469.851 115.649 477.133C114.838 486.408 116.642 500.87 116.883 507.124C104.431 514.68 90.3442 518.397 76.1203 517.879C61.8963 517.362 48.0657 512.629 36.0973 504.184C35.7756 488.12 35.3936 468.285 34.9044 463.531C33.3162 447.834 33.7451 437.905 36.037 433.261C39.7831 425.677 46.451 423.362 53.4272 422.318C57.6893 421.686 64.0892 421.238 64.0892 421.238C64.0892 421.238 64.632 433.268 77.5657 433.937C95.1704 434.848 93.9977 421.238 94.0848 421.238C100.471 421.238 112.574 422.914 117.211 426.382C122.13 430.049 123.511 434.4 123.45 439.654Z" fill="#FFCB05"/>
<path d="M62.6283 448.811L38.7444 505.967C29.5741 500.031 21.5953 492.118 15.2894 482.708L35.2127 435.029L62.6283 448.811Z" fill="#FFCB05"/>
<path d="M142.744 481.844C138.065 489.003 132.418 495.337 125.997 500.628C123.884 502.377 121.689 504.006 119.423 505.507L94.9091 446.408L122.358 432.71L142.744 481.844Z" fill="#FFCB05"/>
<path d="M242.562 179.766C287.83 179.766 324.527 139.524 324.527 89.8829C324.527 40.2419 287.83 0 242.562 0C197.295 0 160.598 40.2419 160.598 89.8829C160.598 139.524 197.295 179.766 242.562 179.766Z" fill="white"/>
<path opacity="0.09" d="M242.562 179.766C287.83 179.766 324.527 139.524 324.527 89.8829C324.527 40.2419 287.83 0 242.562 0C197.295 0 160.598 40.2419 160.598 89.8829C160.598 139.524 197.295 179.766 242.562 179.766Z" fill="#231F20"/>
<path d="M258.411 36.0592C258.411 36.0592 263.601 29.8906 263.2 18.1413C262.89 9.04419 256.379 16.2703 256.379 16.2703C256.379 16.2703 256.097 9.72249 251.956 11.1996C247.815 12.6767 246.542 19.8668 246.542 19.8668" fill="#0C0C0C"/>
<path d="M230.119 16.3071C230.119 16.3071 209.448 22.9688 222.239 52.7801L224.127 52.5464L227.958 52.0731" fill="#0C0C0C"/>
<path d="M259.412 83.7033C259.318 83.69 258.273 102.707 238.127 101.047C224.18 99.9008 219.206 83.6739 218.887 83.6739C220.391 83.3233 222.249 82.792 222.987 82.609C224.597 82.1994 226.055 81.262 227.167 79.9215C228.279 78.5811 228.992 76.9011 229.212 75.1051C229.62 72.4096 228.928 58.6188 229.141 55.8916L250.55 61.1313C250.251 66.8921 248.157 80.2456 255.495 82.609C256.717 83.0007 258.032 83.3608 259.412 83.7033Z" fill="#E98862"/>
<path opacity="0.52" d="M250.851 77.1525C250.516 75.9673 250.3 74.7456 250.207 73.5089C249.972 70.6869 250.018 67.8451 250.347 65.0343C245.995 64.3902 241.896 62.4206 238.515 59.3492C238.117 60.9593 235.931 67.9944 236.536 69.5244C237.68 72.4169 243.057 77.1525 250.851 77.1525Z" fill="#0C0C0C"/>
<path d="M247.356 71.0978C238.912 71.9304 228.012 68.1465 225.827 55.8034L223.855 44.6662C221.669 32.3202 225.809 21.0581 236.407 18.802C247.005 16.5452 256.698 24.8648 258.884 37.2079L259.755 42.1382C260.028 43.8367 260.195 45.5538 260.255 47.2773C260.444 51.8335 260.715 58.7583 258.718 63.8775C256.834 68.7116 252.752 70.5665 247.356 71.0978Z" fill="#E98862"/>
<path opacity="0.5" d="M248.632 58.895C250.179 58.8631 251.697 58.4331 253.064 57.6398C253.094 57.6251 253.12 57.6039 253.143 57.5775C253.165 57.5511 253.182 57.5201 253.192 57.4864C253.203 57.4527 253.208 57.4169 253.206 57.3812C253.204 57.3455 253.195 57.3106 253.18 57.2786C253.166 57.2467 253.145 57.2184 253.12 57.1953C253.095 57.1722 253.066 57.155 253.035 57.1445C253.004 57.134 252.971 57.1306 252.939 57.1344C252.906 57.1382 252.875 57.1491 252.846 57.1666C249.898 58.7987 247.131 58.7833 244.847 57.1269C244.801 57.0919 244.754 57.0595 244.705 57.0299C244.676 57.0145 244.645 57.0055 244.614 57.0033C244.582 57.001 244.55 57.0057 244.52 57.0169C244.49 57.0281 244.462 57.0457 244.439 57.0687C244.415 57.0917 244.395 57.1195 244.381 57.1508C244.367 57.182 244.359 57.2159 244.357 57.2506C244.355 57.2854 244.359 57.3202 244.369 57.3531C244.38 57.386 244.396 57.4164 244.417 57.4425C244.438 57.4687 244.463 57.49 244.492 57.5053C244.51 57.5164 244.539 57.5384 244.581 57.5685C245.781 58.4431 247.192 58.905 248.632 58.895Z" fill="#0C0C0C"/>
<path opacity="0.52" d="M248.707 61.4061C248.987 61.4052 249.266 61.3782 249.541 61.3253C249.573 61.3194 249.602 61.3069 249.629 61.2884C249.656 61.2699 249.679 61.2458 249.698 61.2174C249.716 61.1891 249.729 61.157 249.736 61.1232C249.743 61.0893 249.744 61.0542 249.739 61.0199C249.733 60.9857 249.722 60.9529 249.705 60.9235C249.688 60.8941 249.666 60.8686 249.64 60.8485C249.614 60.8284 249.585 60.8141 249.554 60.8064C249.523 60.7986 249.491 60.7977 249.46 60.8035C249.029 60.9221 248.579 60.9384 248.141 60.8515C247.703 60.7646 247.287 60.5764 246.921 60.2994C246.873 60.2547 246.811 60.2325 246.748 60.2376C246.685 60.2427 246.626 60.2746 246.584 60.3265C246.543 60.3784 246.521 60.4462 246.524 60.5153C246.528 60.5844 246.556 60.6494 246.602 60.6962C247.208 61.1928 247.952 61.4436 248.707 61.4061Z" fill="#0C0C0C"/>
<path d="M256.347 45.2483C257.081 45.2483 257.677 44.5955 257.677 43.7903C257.677 42.985 257.081 42.3322 256.347 42.3322C255.613 42.3322 255.018 42.985 255.018 43.7903C255.018 44.5955 255.613 45.2483 256.347 45.2483Z" fill="#0C0C0C"/>
<path d="M243.419 46.9054C244.153 46.9054 244.748 46.2526 244.748 45.4474C244.748 44.6422 244.153 43.9894 243.419 43.9894C242.685 43.9894 242.089 44.6422 242.089 45.4474C242.089 46.2526 242.685 46.9054 243.419 46.9054Z" fill="#0C0C0C"/>
<path d="M227.151 59.4235C223.93 60.1091 220.651 56.8866 220.025 53.3548C219.399 49.8229 221.666 47.3199 224.886 46.6343L226.963 48.6471L229.919 58.8341L227.151 59.4235Z" fill="#E98862"/>
<path d="M229.423 53.0975C229.423 53.0975 227.624 35.3758 232.286 33.3343C235.391 31.974 244.037 35.4368 251.028 32.4855C254.087 31.1936 257.236 31.4567 257.813 33.0374C258.041 33.6628 258.474 23.9337 252.343 17.8319C247.462 12.9744 234.273 13.9466 228.698 16.964C213.26 25.3189 224.348 47.5352 224.348 47.5352L226.07 53.426L229.423 53.0975Z" fill="#0C0C0C"/>
<g opacity="0.52">
<path d="M250.615 54.5062H250.635C251.674 54.2858 253.394 53.7956 253.249 52.9439C253.125 52.2377 250.032 44.9888 249.681 44.165C249.666 44.1299 249.645 44.0984 249.619 44.0723C249.593 44.0462 249.562 44.0259 249.529 44.0128C249.496 43.9996 249.46 43.9937 249.425 43.9955C249.39 43.9973 249.355 44.0067 249.323 44.0231C249.291 44.0396 249.263 44.0628 249.239 44.0914C249.215 44.12 249.196 44.1535 249.184 44.19C249.172 44.2264 249.167 44.2651 249.169 44.3038C249.17 44.3425 249.179 44.3805 249.194 44.4156C250.565 47.6255 252.636 52.5728 252.72 53.0541C252.653 53.2746 251.613 53.7001 250.538 53.9257C250.467 53.9373 250.403 53.9794 250.36 54.0427C250.318 54.106 250.299 54.1854 250.31 54.2634C250.321 54.3413 250.359 54.4115 250.417 54.4584C250.474 54.5053 250.547 54.5252 250.618 54.5136L250.615 54.5062Z" fill="#0C0C0C"/>
</g>
<path d="M251.349 36.7441C252.388 36.1978 253.543 35.9693 254.691 36.0827C255.254 36.1347 255.806 36.2789 256.33 36.5104C256.848 36.736 257.337 37.0323 257.787 37.3923C257.871 37.4556 257.929 37.552 257.949 37.6612C257.969 37.7703 257.949 37.8837 257.895 37.9775C257.84 38.0713 257.754 38.1382 257.655 38.164C257.557 38.1899 257.453 38.1727 257.365 38.1161L257.335 38.1044C256.927 37.8187 256.488 37.5904 256.028 37.4246C255.576 37.2591 255.104 37.1696 254.627 37.1593C253.687 37.1306 252.757 37.3748 251.932 37.867L251.897 37.8883C251.83 37.9304 251.756 37.9576 251.679 37.9682C251.603 37.9789 251.525 37.9729 251.45 37.9506C251.375 37.9282 251.305 37.89 251.244 37.838C251.183 37.786 251.132 37.7213 251.094 37.6477C251.055 37.574 251.03 37.4927 251.021 37.4086C251.011 37.3244 251.016 37.2389 251.037 37.1571C251.057 37.0752 251.092 36.9986 251.139 36.9315C251.187 36.8644 251.246 36.8082 251.313 36.7662L251.349 36.7441Z" fill="#0C0C0C"/>
<path d="M243.726 39.0031C242.821 38.7254 241.865 38.7145 240.955 38.9715C240.493 39.0977 240.05 39.3002 239.643 39.5719C239.227 39.8455 238.845 40.1751 238.504 40.553L238.482 40.5765C238.409 40.6545 238.311 40.6979 238.208 40.6976C238.106 40.6972 238.008 40.6531 237.935 40.5746C237.862 40.4961 237.82 40.3894 237.818 40.2774C237.815 40.1653 237.853 40.0567 237.923 39.9747C238.288 39.513 238.705 39.1038 239.163 38.757C239.627 38.4032 240.137 38.1275 240.676 37.939C241.214 37.7444 241.774 37.6317 242.34 37.6039C242.92 37.5689 243.502 37.6244 244.067 37.7685C244.219 37.8075 244.351 37.9112 244.434 38.0567C244.516 38.2022 244.542 38.3777 244.507 38.5446C244.471 38.7114 244.377 38.8559 244.244 38.9463C244.111 39.0367 243.951 39.0656 243.799 39.0267L243.764 39.0164L243.726 39.0031Z" fill="#0C0C0C"/>
<path d="M247.804 25.0032C250.103 23.9815 250.855 20.1452 249.483 16.4345C248.112 12.7238 245.137 10.5439 242.838 11.5655C240.539 12.5872 239.787 16.4235 241.158 20.1342C242.53 23.8449 245.505 26.0248 247.804 25.0032Z" fill="#0C0C0C"/>
<path d="M287.257 103.355C287.337 109.447 285.166 116.296 284.442 125.57C284.295 127.452 283.946 131.596 283.484 136.998C282.727 145.941 281.654 158.309 280.716 169.458C267.299 177.18 252.195 180.679 237.076 179.566C221.957 178.453 207.414 172.772 195.059 163.152C194.764 162.91 194.469 162.675 194.174 162.447C193.39 149.844 192.465 136.616 191.621 128.26C190.033 112.658 187.868 104.891 189.081 99.6436C189.178 99.1968 189.308 98.7593 189.47 98.3355C192.961 89.0466 204.079 84.9018 211.611 83.7848C216.208 83.1014 223.124 82.609 223.124 82.609C223.124 82.609 223.707 95.6017 237.666 96.3219C256.672 97.3067 255.405 82.609 255.499 82.609C258.575 82.609 275.335 85.0635 279.523 88.0618C280.226 88.5617 280.897 89.1116 281.534 89.708C283.354 91.3724 284.812 93.4612 285.802 95.8221C286.792 98.183 287.289 100.756 287.257 103.355Z" fill="#383838"/>
<path d="M217.281 112.776L195.059 163.152C194.764 162.91 194.469 162.675 194.174 162.447C185.56 155.52 178.254 146.825 172.662 136.843L189.081 99.6437L189.731 98.1665L217.281 112.776Z" fill="#383838"/>
<path d="M215.136 118.574L194.925 163.042C194.791 162.932 194.663 162.829 194.529 162.733L214.714 118.346C214.743 118.285 214.793 118.238 214.853 118.216C214.913 118.194 214.979 118.198 215.036 118.229C215.091 118.26 215.132 118.314 215.151 118.379C215.17 118.443 215.164 118.514 215.136 118.574Z" fill="white"/>
<path d="M317.614 126.07C313.586 136.082 307.929 145.206 300.921 152.996L283.484 136.998L261.336 116.671L281.534 89.708L281.594 89.6272L317.614 126.07Z" fill="#383838"/>
<path d="M283.753 137.194C283.81 137.191 283.863 137.165 283.904 137.122C283.946 137.078 283.971 137.02 283.976 136.958L285.126 122.165C285.132 122.097 285.112 122.029 285.072 121.976C285.032 121.924 284.974 121.891 284.912 121.885C284.85 121.88 284.789 121.902 284.741 121.946C284.694 121.99 284.663 122.052 284.657 122.12L283.507 136.914C283.501 136.982 283.521 137.05 283.561 137.102C283.602 137.154 283.659 137.187 283.721 137.193L283.753 137.194Z" fill="white"/>
<path d="M628.512 568.984C671.688 568.984 706.689 530.601 706.689 483.254C706.689 435.907 671.688 397.525 628.512 397.525C585.336 397.525 550.335 435.907 550.335 483.254C550.335 530.601 585.336 568.984 628.512 568.984Z" fill="white"/>
<path opacity="0.09" d="M550.334 483.252C550.334 500.208 554.919 516.782 563.509 530.88C572.099 544.978 584.308 555.966 598.593 562.455C612.878 568.944 628.596 570.641 643.761 567.334C658.925 564.026 672.855 555.861 683.788 543.872C694.721 531.883 702.167 516.607 705.183 499.978C708.2 483.348 706.652 466.111 700.735 450.446C694.818 434.782 684.798 421.393 671.942 411.973C659.086 402.553 643.972 397.525 628.51 397.525C618.233 397.484 608.051 399.673 598.549 403.966C589.047 408.26 580.414 414.573 573.147 422.541C565.88 430.51 560.123 439.977 556.208 450.397C552.293 460.816 550.297 471.983 550.334 483.252Z" fill="#231F20"/>
<path d="M663.985 435.946C662.737 451.82 663.894 457.202 669.905 466.297C674.974 473.965 646.129 467.447 633.367 464.954L644.629 428.858C644.629 428.858 664.423 430.372 663.985 435.946Z" fill="#0A0A0A"/>
<path d="M619.953 429.342C616.188 444.729 616.611 449.49 609.242 457.571C603.135 464.269 626.937 465.63 639.709 468.063L640.355 429.923C640.355 429.923 621.276 423.938 619.953 429.342Z" fill="#0A0A0A"/>
<path d="M621.223 474.098C621.307 474.085 622.242 491.103 640.27 489.619C652.75 488.594 657.199 474.073 657.486 474.073C656.059 473.813 654.653 473.439 653.276 472.954C651.312 471.796 648.88 470.591 648.246 466.406C647.881 463.994 648.5 451.653 648.31 449.21L629.153 453.899C629.421 459.054 631.297 471.003 624.73 473.117C623.635 473.47 622.458 473.792 621.223 474.098Z" fill="#E98862"/>
<path opacity="0.5" d="M628.884 468.237C629.184 467.176 629.377 466.083 629.46 464.976C629.671 462.451 629.629 459.908 629.336 457.393C633.229 456.817 636.898 455.054 639.924 452.306C640.28 453.747 642.236 460.041 641.694 461.411C640.67 463.999 635.859 468.237 628.884 468.237Z" fill="#0C0C0C"/>
<path d="M631.361 462.935C638.914 463.736 648.686 460.424 650.711 449.394L652.538 439.441C654.562 428.411 650.92 418.304 641.45 416.214C631.98 414.124 623.26 421.505 621.235 432.533L620.427 436.942C619.65 441.171 617.885 461.507 631.361 462.935Z" fill="#E98862"/>
<path d="M661.679 442.583L653.159 441.559C636.489 438.198 632.406 423.446 632.406 423.446C632.406 423.446 625.413 433.684 619.476 431.333C619.476 431.333 621.39 406.648 647.748 410.986C658.104 412.69 663.985 422.104 663.985 434.733C663.985 444.016 661.679 442.583 661.679 442.583Z" fill="#0A0A0A"/>
<path opacity="0.1" d="M638.605 446.962C638.714 445.962 637.795 445.02 636.552 444.857C635.309 444.694 634.213 445.373 634.105 446.373C633.996 447.373 634.915 448.315 636.158 448.478C637.401 448.64 638.497 447.962 638.605 446.962Z" fill="#0C0C0C"/>
<path opacity="0.1" d="M623.032 444.485C622.921 445.483 621.826 446.161 620.582 446C620.367 445.972 620.156 445.919 619.951 445.843C619.893 444.652 619.89 443.507 619.921 442.447C620.267 442.353 620.625 442.33 620.978 442.379C622.217 442.54 623.137 443.482 623.032 444.485Z" fill="#0C0C0C"/>
<path opacity="0.5" d="M628.521 447.571H628.502C628.119 447.483 627.74 447.372 627.368 447.238C626.812 447.034 626.084 446.7 626.185 446.148C626.3 445.519 629.115 439.085 629.435 438.354C629.449 438.321 629.468 438.292 629.492 438.267C629.515 438.243 629.543 438.224 629.574 438.211C629.605 438.199 629.637 438.194 629.67 438.195C629.702 438.197 629.734 438.206 629.764 438.221C629.793 438.237 629.819 438.259 629.841 438.286C629.863 438.312 629.879 438.344 629.889 438.378C629.9 438.411 629.904 438.447 629.901 438.483C629.899 438.519 629.89 438.553 629.875 438.585C628.674 441.325 626.741 445.83 626.663 446.254C627.241 446.684 627.905 446.956 628.598 447.047C628.66 447.061 628.714 447.1 628.749 447.157C628.785 447.213 628.799 447.283 628.789 447.351C628.779 447.419 628.746 447.48 628.696 447.521C628.646 447.563 628.584 447.582 628.521 447.574V447.571Z" fill="#0C0C0C"/>
<path d="M649.506 452.624C652.384 453.259 655.336 450.398 655.916 447.242C656.496 444.086 654.482 441.83 651.604 441.195L649.733 442.983L647.032 452.078L649.506 452.624Z" fill="#E98862"/>
<path d="M627.395 433.219C627.039 432.943 626.652 432.72 626.243 432.557C625.828 432.387 625.395 432.28 624.953 432.239C624.512 432.193 624.067 432.22 623.633 432.319C623.196 432.417 622.771 432.575 622.369 432.789L622.357 432.795C622.313 432.812 622.265 432.811 622.223 432.791C622.18 432.772 622.145 432.736 622.125 432.69C622.106 432.644 622.102 432.592 622.115 432.543C622.129 432.495 622.158 432.453 622.198 432.427C622.624 432.181 623.076 431.994 623.544 431.871C624.016 431.745 624.502 431.698 624.987 431.731C625.968 431.791 626.917 432.139 627.735 432.738C627.794 432.784 627.834 432.855 627.847 432.933C627.859 433.012 627.843 433.093 627.802 433.159C627.761 433.226 627.698 433.272 627.627 433.288C627.555 433.304 627.481 433.289 627.42 433.245L627.413 433.24L627.395 433.219Z" fill="#0C0C0C"/>
<path d="M635.15 434.395C636.114 434.184 637.112 434.262 638.039 434.619C638.498 434.792 638.931 435.039 639.323 435.354C639.713 435.663 640.066 436.026 640.373 436.432C640.407 436.472 640.424 436.525 640.422 436.579C640.419 436.633 640.398 436.684 640.361 436.721C640.325 436.757 640.276 436.776 640.227 436.774C640.178 436.771 640.131 436.747 640.098 436.707L640.088 436.696C639.791 436.33 639.453 436.006 639.083 435.732C638.716 435.458 638.314 435.246 637.89 435.104C637.049 434.815 636.152 434.775 635.292 434.988L635.271 434.994C635.199 435.013 635.123 435 635.059 434.958C634.996 434.916 634.95 434.848 634.932 434.769C634.915 434.69 634.926 434.606 634.965 434.536C635.003 434.467 635.065 434.416 635.137 434.397L635.15 434.395Z" fill="#0C0C0C"/>
<path d="M592.188 559.18C589.115 557.71 586.816 556.138 581.568 551.802C577.781 548.685 574.262 545.195 571.054 541.376L598 485.147L599.172 482.705L623.476 496.717L602.394 540.714L602.297 540.908L602.48 541.691" fill="#379777"/>
<path d="M681.804 513.947C681.096 522.285 680.943 535.253 680.992 546.783C670.832 556.889 658.424 563.884 645.016 567.064C631.608 570.244 617.673 569.496 604.612 564.897C603.014 547.51 600.637 521.958 599.298 506.225C597.94 489.928 593.947 484.546 604.844 476.742C610.849 473.39 620.368 473.095 624.646 473.095C623.194 488.542 652.88 490.444 653.618 473.095C675.822 475.372 686.101 475.938 681.804 513.947Z" fill="#379777"/>
<path d="M625.989 449.744C628.443 451.113 631.243 451.546 633.946 450.974C634.04 450.954 634.137 450.965 634.225 451.003C634.314 451.042 634.391 451.108 634.446 451.192C634.502 451.277 634.535 451.378 634.541 451.482C634.546 451.587 634.525 451.691 634.478 451.782C633.674 453.339 631.76 456.002 628.481 454.917C626.363 454.216 625.563 451.831 625.264 450.35C625.243 450.247 625.25 450.14 625.283 450.041C625.315 449.943 625.373 449.856 625.45 449.793C625.526 449.729 625.617 449.69 625.713 449.682C625.808 449.673 625.904 449.695 625.989 449.744Z" fill="white"/>
<path d="M625.835 437.776C626.49 437.776 627.021 437.194 627.021 436.476C627.021 435.758 626.49 435.176 625.835 435.176C625.18 435.176 624.65 435.758 624.65 436.476C624.65 437.194 625.18 437.776 625.835 437.776Z" fill="#0C0C0C"/>
<path d="M637.23 439.963C637.885 439.963 638.416 439.381 638.416 438.663C638.416 437.945 637.885 437.363 637.23 437.363C636.576 437.363 636.045 437.945 636.045 438.663C636.045 439.381 636.576 439.963 637.23 439.963Z" fill="#0C0C0C"/>
<path d="M601.923 534.291H601.945C601.993 534.283 602.037 534.255 602.066 534.212C602.095 534.17 602.108 534.116 602.101 534.063L600.005 510.905C600.002 510.879 599.995 510.853 599.983 510.83C599.971 510.807 599.955 510.787 599.935 510.771C599.916 510.755 599.894 510.743 599.871 510.737C599.847 510.731 599.823 510.73 599.799 510.734C599.775 510.737 599.752 510.746 599.731 510.759C599.71 510.773 599.692 510.79 599.678 510.811C599.663 510.832 599.653 510.856 599.647 510.882C599.641 510.907 599.639 510.934 599.643 510.96L601.738 534.119C601.745 534.167 601.767 534.211 601.801 534.243C601.835 534.274 601.878 534.291 601.923 534.291Z" fill="#0C0C0C"/>
<path d="M599.182 516.653H577.785V545.431H599.182V516.653Z" fill="white"/>
<path d="M590.42 531.042C590.421 529.142 590.935 527.284 591.898 525.704C592.861 524.124 594.23 522.893 595.831 522.166C597.433 521.439 599.194 521.249 600.894 521.62C602.594 521.991 604.155 522.907 605.38 524.251C606.606 525.595 607.44 527.307 607.778 529.171C608.116 531.035 607.942 532.967 607.278 534.723C606.615 536.479 605.492 537.979 604.051 539.035C602.61 540.091 600.915 540.654 599.182 540.654C596.859 540.651 594.631 539.637 592.989 537.835C591.346 536.033 590.422 533.59 590.42 531.042ZM594.009 531.042C594.009 532.164 594.312 533.261 594.881 534.194C595.449 535.127 596.257 535.854 597.203 536.284C598.148 536.713 599.188 536.825 600.192 536.607C601.195 536.388 602.117 535.847 602.841 535.054C603.564 534.26 604.057 533.25 604.257 532.149C604.456 531.049 604.354 529.908 603.962 528.871C603.571 527.835 602.907 526.948 602.057 526.325C601.206 525.702 600.206 525.369 599.182 525.369C597.811 525.371 596.496 525.969 595.526 527.033C594.556 528.096 594.01 529.538 594.009 531.042Z" fill="white"/>
<path d="M599.012 534.604C599.084 534.117 599.31 533.673 599.65 533.351C599.991 533.028 600.423 532.847 600.873 532.84C600.861 532.82 600.852 532.798 600.847 532.774L600.21 532.623C599.766 532.527 599.365 532.265 599.077 531.882C598.789 531.5 598.629 531.019 598.627 530.523C598.631 530.211 598.698 529.905 598.823 529.625C598.949 529.346 599.129 529.1 599.351 528.907C599.573 528.713 599.832 528.575 600.109 528.505C600.385 528.434 600.673 528.431 600.95 528.497L602.453 528.852C602.453 528.847 602.453 528.841 602.453 528.834C602.457 528.821 602.461 528.808 602.467 528.796C602.075 528.594 601.757 528.253 601.565 527.827C601.373 527.402 601.318 526.918 601.409 526.454C601.573 525.235 602.908 524.833 603.885 525.065L607.778 525.829L606.464 524.874C606.05 524.559 605.759 524.083 605.652 523.543C605.545 523.002 605.629 522.437 605.887 521.962C606.028 521.722 606.212 521.516 606.428 521.356C606.644 521.197 606.888 521.087 607.144 521.034C607.399 520.981 607.663 520.986 607.917 521.048C608.171 521.11 608.411 521.228 608.622 521.396L624.316 541.09L620.831 539.357C619.75 541.101 618.218 542.452 616.432 543.235C614.646 544.018 612.687 544.198 610.807 543.753L602.297 541.719C601.852 541.622 601.452 541.361 601.163 540.978C600.875 540.595 600.716 540.115 600.713 539.618C600.719 539.17 600.856 538.736 601.103 538.379C601.35 538.023 601.694 537.761 602.086 537.634C602.074 537.603 602.069 537.568 602.073 537.534C602.078 537.502 602.09 537.472 602.108 537.446C602.126 537.421 602.15 537.4 602.177 537.387L600.606 537.016C600.111 536.91 599.671 536.602 599.375 536.154C599.079 535.706 598.95 535.152 599.012 534.604Z" fill="#E98862"/>
<path opacity="0.2" d="M605.296 529.546C605.337 529.536 605.374 529.512 605.4 529.476C605.426 529.44 605.439 529.395 605.439 529.349C605.438 529.303 605.422 529.259 605.395 529.224C605.368 529.189 605.331 529.166 605.289 529.158L602.66 528.67C602.637 528.665 602.612 528.664 602.588 528.67C602.565 528.675 602.542 528.685 602.522 528.7C602.502 528.715 602.485 528.734 602.472 528.757C602.458 528.779 602.45 528.804 602.446 528.83C602.441 528.857 602.442 528.884 602.448 528.909C602.454 528.935 602.464 528.96 602.478 528.981C602.493 529.002 602.511 529.02 602.532 529.034C602.553 529.047 602.576 529.056 602.6 529.06L605.229 529.548C605.251 529.552 605.274 529.551 605.296 529.546Z" fill="#0C0C0C"/>
<path opacity="0.2" d="M604.661 533.624C604.702 533.615 604.739 533.59 604.765 533.554C604.791 533.518 604.805 533.473 604.804 533.428C604.804 533.382 604.789 533.338 604.762 533.303C604.734 533.268 604.697 533.244 604.656 533.236L601.055 532.536C601.031 532.53 601.006 532.529 600.982 532.534C600.958 532.538 600.935 532.549 600.915 532.563C600.894 532.578 600.877 532.597 600.863 532.62C600.85 532.642 600.841 532.667 600.837 532.694C600.832 532.72 600.833 532.747 600.838 532.773C600.844 532.799 600.854 532.824 600.869 532.846C600.883 532.867 600.902 532.885 600.923 532.899C600.944 532.912 600.967 532.921 600.992 532.924L604.593 533.625C604.616 533.63 604.639 533.629 604.661 533.624Z" fill="#0C0C0C"/>
<path opacity="0.2" d="M604 538.045C604.041 538.035 604.078 538.01 604.104 537.974C604.13 537.938 604.144 537.892 604.143 537.846C604.141 537.8 604.126 537.756 604.098 537.721C604.07 537.686 604.032 537.663 603.99 537.656L602.282 537.37C602.236 537.365 602.19 537.38 602.154 537.411C602.117 537.442 602.093 537.487 602.086 537.537C602.079 537.587 602.09 537.638 602.116 537.679C602.143 537.721 602.182 537.75 602.227 537.76L603.936 538.047C603.957 538.051 603.979 538.05 604 538.045Z" fill="#0C0C0C"/>
<path d="M692.705 532.169C683.077 547.353 669.24 558.727 653.249 564.603L653.243 564.596C649.691 563.834 615.809 549.164 611.328 548.2L616.232 523.112C628.824 525.86 651.789 536.453 664.453 539.211L655.519 494.789C655.195 492.827 655.23 490.814 655.621 488.866C656.012 486.919 656.752 485.076 657.797 483.445C658.843 481.813 660.173 480.426 661.712 479.363C663.25 478.299 664.965 477.581 666.759 477.251C668.552 476.92 670.387 476.983 672.158 477.436C673.929 477.889 675.6 478.723 677.075 479.889C678.549 481.056 679.798 482.532 680.749 484.232C681.699 485.932 682.333 487.822 682.612 489.792L692.705 532.169Z" fill="#379777"/>
<path d="M674.051 542.481C674.097 542.48 674.141 542.46 674.174 542.426C674.207 542.391 674.227 542.344 674.231 542.294C674.234 542.245 674.221 542.195 674.193 542.155C674.164 542.116 674.124 542.089 674.079 542.081L664.557 538.539C664.534 538.535 664.509 538.536 664.486 538.542C664.462 538.548 664.44 538.559 664.421 538.575C664.401 538.591 664.385 538.611 664.373 538.633C664.36 538.656 664.352 538.682 664.349 538.708C664.342 538.76 664.354 538.814 664.383 538.857C664.412 538.899 664.455 538.928 664.503 538.936L674.025 542.478C674.033 542.48 674.042 542.481 674.051 542.481Z" fill="#0C0C0C"/>
<path d="M664.704 538.709C664.709 538.772 664.691 538.834 664.655 538.883C664.634 538.905 664.609 538.921 664.581 538.93C664.553 538.939 664.524 538.942 664.496 538.936L616.536 523.414L611.73 548.106L653.029 564.676C652.901 564.723 652.766 564.769 652.638 564.816C652.546 564.85 652.455 564.883 652.357 564.91L611.461 548.444C611.415 548.43 611.375 548.397 611.35 548.352C611.326 548.308 611.317 548.254 611.327 548.203L616.231 523.114C616.237 523.089 616.248 523.065 616.262 523.044C616.277 523.024 616.296 523.006 616.317 522.994C616.337 522.978 616.36 522.968 616.384 522.963C616.409 522.959 616.433 522.96 616.457 522.967L664.301 538.51L658.885 514.021C658.878 513.969 658.89 513.916 658.919 513.873C658.948 513.831 658.99 513.802 659.037 513.794C659.061 513.789 659.085 513.789 659.109 513.794C659.133 513.8 659.155 513.81 659.175 513.825C659.195 513.84 659.212 513.859 659.225 513.881C659.238 513.903 659.247 513.928 659.251 513.954L664.704 538.709Z" fill="#0C0C0C"/>
<path d="M39.3153 506.707C39.2707 506.707 39.2265 506.697 39.1853 506.679C39.1447 506.66 39.1079 506.633 39.0769 506.598C39.046 506.564 39.0215 506.523 39.0049 506.479C38.9883 506.434 38.9799 506.386 38.9801 506.338C38.9804 506.29 38.9893 506.242 39.0064 506.197L52.1372 471.972C52.1717 471.882 52.2374 471.811 52.3198 471.774C52.4022 471.737 52.4945 471.738 52.5764 471.776C52.6584 471.814 52.7232 471.886 52.7567 471.976C52.7902 472.066 52.7896 472.168 52.755 472.257L39.6242 506.482C39.5988 506.549 39.5558 506.606 39.5009 506.646C39.4459 506.686 39.3813 506.707 39.3153 506.707Z" fill="#0C0C0C"/>
<path d="M116.581 507.096H116.567C116.523 507.098 116.479 507.091 116.437 507.074C116.396 507.058 116.358 507.033 116.326 507C116.293 506.968 116.267 506.928 116.248 506.885C116.229 506.841 116.219 506.794 116.217 506.746L114.753 471.74C114.752 471.644 114.784 471.55 114.844 471.479C114.903 471.408 114.985 471.364 115.072 471.356C115.116 471.353 115.16 471.361 115.202 471.377C115.243 471.394 115.281 471.419 115.314 471.451C115.346 471.484 115.373 471.523 115.391 471.567C115.41 471.611 115.421 471.658 115.423 471.706L116.886 506.712C116.891 506.807 116.861 506.9 116.804 506.971C116.748 507.043 116.668 507.088 116.581 507.096Z" fill="#0C0C0C"/>
</svg>
